<mxfile host="Electron" modified="2024-04-18T23:25:38.248Z" agent="Mozilla/5.0 (Windows NT 10.0; Win64; x64) AppleWebKit/537.36 (KHTML, like Gecko) draw.io/24.2.5 Chrome/120.0.6099.109 Electron/28.1.0 Safari/537.36" etag="1uXHl8JLEZ4vUslYeatO" version="24.2.5" type="device">
  <diagram name="ページ1" id="2gMpvr0lnLhWFocec0f0">
    <mxGraphModel dx="3031" dy="385" grid="1" gridSize="10" guides="1" tooltips="1" connect="1" arrows="1" fold="1" page="1" pageScale="1" pageWidth="827" pageHeight="1169" math="0" shadow="0">
      <root>
        <mxCell id="0" />
        <mxCell id="1" parent="0" />
        <mxCell id="FD_-1MQ_MHMcF5boPye6-1" value="" style="swimlane;whiteSpace=wrap;html=1;startSize=90;fillColor=#002b62;strokeColor=none;fontSize=21;fontColor=#FFFFFF;rounded=1;arcSize=4;shadow=0;glass=0;swimlaneFillColor=#F6F6F6;" vertex="1" parent="1">
          <mxGeometry x="382" y="1384" width="708" height="586" as="geometry" />
        </mxCell>
        <mxCell id="FD_-1MQ_MHMcF5boPye6-2" value="" style="shape=image;verticalLabelPosition=bottom;labelBackgroundColor=default;verticalAlign=top;aspect=fixed;imageAspect=0;image=data:image/svg+xml,PHN2ZyB4bWxuczp4bGluaz0iaHR0cDovL3d3dy53My5vcmcvMTk5OS94bGluayIgeG1sbnM9Imh0dHA6Ly93d3cudzMub3JnLzIwMDAvc3ZnIiB4bWw6c3BhY2U9InByZXNlcnZlIiBzdHlsZT0iZW5hYmxlLWJhY2tncm91bmQ6bmV3IDAgMCAyNDAgNDI7IiB2aWV3Qm94PSIwIDAgMjQwIDQyIiB5PSIwcHgiIHg9IjBweCIgaWQ9IuODrOOCpOODpOODvF8xIiB2ZXJzaW9uPSIxLjEiPiYjeGE7PHN0eWxlIHR5cGU9InRleHQvY3NzIj4mI3hhOwkuc3Qwe2ZpbGw6I0ZGRkZGRjt9JiN4YTs8L3N0eWxlPiYjeGE7PGc+JiN4YTsJPGc+JiN4YTsJCTxwb2x5Z29uIHBvaW50cz0iNDQuOCwxOS4yIDQzLjgsMTYuMyA0Mi45LDE5LjIgMzkuOCwxOS4yIDQyLjMsMjEuMSA0MS40LDI0LjEgNDMuOCwyMi4zIDQ2LjQsMjQuMSA0NS41LDIxLjEgJiMxMDsmIzk7JiM5OyYjOTs0OCwxOS4yIiBjbGFzcz0ic3QwIi8+JiN4YTsJCTxwYXRoIGQ9Ik02My4yLDE2LjFjLTAuMSwwLjQtMC4xLDAuOC0wLjEsMS4zYy0wLjQtMC4xLTAuOC0wLjMtMS4xLTAuN2MtMC4zLTAuMy0wLjYtMC43LTAuNy0xLjEmIzEwOyYjOTsmIzk7JiM5O2MwLjQsMCwwLjktMC4xLDEuMy0wLjFsMS42LTEuNmwtNS44LDAuN0w0OC4zLDI0LjljLTAuMiwwLjItMC41LDAuNC0wLjcsMC42Yy0yLjQsMS44LTUuOCwxLjYtNy45LTAuNmMtMS40LTEuNC0yLjEtMy43LTEuNi01LjYmIzEwOyYjOTsmIzk7JiM5O2wtMy40LDMuM2MwLjQsMS44LDEuMywzLjMsMi42LDQuN2MxLjgsMS44LDQuMiwyLjgsNi44LDIuOGMyLjYsMCw1LTEsNi44LTIuOGw4LjYtOC42YzAuMS0wLjQsMC4xLTAuOCwwLjEtMS4zJiMxMDsmIzk7JiM5OyYjOTtjMC40LDAuMSwwLjgsMC4zLDEuMSwwLjdjMC4zLDAuMywwLjYsMC43LDAuNywxLjFjLTAuNCwwLTAuOSwwLjEtMS4zLDAuMWwtOC42LDguNmMtMiwyLTQuNSwzLjEtNy4zLDMuMWMtMi44LDAtNS40LTEuMS03LjMtMy4xJiMxMDsmIzk7JiM5OyYjOTtjLTEuMy0xLjMtMi4yLTIuOS0yLjctNC41bC0yLjcsMi43YzAuNywxLjYsMS43LDMuMSwzLDQuM2MyLjgsMi44LDYuNCw0LjIsMTAsNC4xYzMuNC0wLjEsNy0xLjQsOS42LTQuMWwxMC4yLTEwLjJsMC44LTUuNiYjMTA7JiM5OyYjOTsmIzk7TDYzLjIsMTYuMXogTTU5LjQsMTcuM2MwLTAuNy0wLjEtMS40LTAuMy0xLjljLTAuMS0wLjMtMC4zLTAuNS0wLjQtMC43YzAuMywwLjMsMC42LDAuNCwxLjEsMC42YzAuNCwwLjIsMC45LDAuMywxLjQsMC4zJiMxMDsmIzk7JiM5OyYjOTtDNjEsMTYuMyw2MC4xLDE3LjIsNTkuNCwxNy4zeiBNNjEuMiwxOS4yYzAuMi0wLjcsMS4xLTEuNiwxLjgtMS44YzAsMSwwLjMsMiwwLjgsMi42QzYzLjMsMTkuMyw2Mi4zLDE5LjIsNjEuMiwxOS4yeiIgY2xhc3M9InN0MCIvPiYjeGE7CQk8cGF0aCBkPSJNMzkuNiwxNi4zYzAsMCwwLjUtMC40LDAuNy0wLjZjMi40LTEuOCw1LjgtMS42LDcuOSwwLjZjMS40LDEuNCwyLjEsMy43LDEuNiw1LjZsMy4zLTMuMyYjMTA7JiM5OyYjOTsmIzk7Yy0wLjQtMS44LTEuMy0zLjMtMi42LTQuN2MtMS43LTEuOS00LjEtMi45LTYuNi0yLjlzLTUsMS02LjgsMi44bC04LjcsOC43Yy0wLjEsMC40LTAuMSwwLjgtMC4xLDEuM2MtMC40LTAuMS0wLjgtMC4zLTEuMS0wLjcmIzEwOyYjOTsmIzk7JiM5O2MtMC4zLTAuMy0wLjYtMC43LTAuNy0xLjFjMC40LDAsMC45LTAuMSwxLjMtMC4xbDguNi04LjZjMi0yLDQuNS0zLjEsNy4zLTMuMXM1LjQsMS4xLDcuMywzLjFjMS4zLDEuMywyLjIsMi45LDIuNyw0LjVsMi43LTIuNyYjMTA7JiM5OyYjOTsmIzk7Yy0wLjctMS42LTEuNy0zLjEtMy00LjNjLTIuNi0yLjgtNi4yLTQuMi0xMC00LjFjLTMuNCwwLjEtNywxLjQtOS42LDQuMUwyMy44LDIxTDIzLDI2LjhsMS42LTEuNmMwLjEtMC40LDAuMS0wLjgsMC4xLTEuMyYjMTA7JiM5OyYjOTsmIzk7YzAuNCwwLjEsMC44LDAuMywxLjEsMC43YzAuMywwLjMsMC42LDAuNywwLjcsMS4xYy0wLjQsMC0wLjksMC4xLTEuMywwLjFsLTEuNiwxLjZsNS44LTAuOEwzOS42LDE2LjN6IE0yNC44LDIzLjgmIzEwOyYjOTsmIzk7JiM5O2MwLTEtMC4zLTItMC44LTIuNmMwLjUsMC41LDEuNCwwLjgsMi42LDAuOEMyNi40LDIyLjcsMjUuNSwyMy41LDI0LjgsMjMuOHogTTI4LjEsMjUuOGMtMC40LTAuMS0xLTAuMi0xLjQtMC4yJiMxMDsmIzk7JiM5OyYjOTtjMC4yLTAuNywxLjEtMS42LDEuOC0xLjhjMCwwLjcsMC4xLDEuNCwwLjMsMS45YzAuMSwwLjMsMC4zLDAuNSwwLjQsMC43QzI4LjksMjYuMSwyOC40LDI1LjksMjguMSwyNS44eiIgY2xhc3M9InN0MCIvPiYjeGE7CTwvZz4mI3hhOwk8Zz4mI3hhOwkJPHBhdGggZD0iTTc2LjQsMTIuM2gzLjh2MTYuNWgtMy44VjEyLjN6IiBjbGFzcz0ic3QwIi8+JiN4YTsJCTxwYXRoIGQ9Ik05Mi43LDE1LjVoLTMuOHYxMy4yaC0zLjhWMTUuNWgtMy43di0zLjNoMTEuM1YxNS41eiIgY2xhc3M9InN0MCIvPiYjeGE7CQk8cGF0aCBkPSJNMTExLDI4LjdoLTMuOWwtMS0zLjhoLTMuOGwtMC45LDMuOGgtMy44bDQuMy0xNi41aDQuOEwxMTEsMjguN3ogTTEwNS44LDIyLjFsLTAuNy0zLjMmIzEwOyYjOTsmIzk7JiM5O2MtMC4yLTEtMC41LTIuNC0wLjctMy40bDAsMGMtMC4yLDEtMC41LDIuNS0wLjcsMy40bC0wLjcsMy4zSDEwNS44eiIgY2xhc3M9InN0MCIvPiYjeGE7CQk8cGF0aCBkPSJNMTIyLjYsMjQuOWMwLDEuNCwwLjEsMi44LDAuMSwzLjloLTMuM2wtMC4yLTEuNWgtMC4xYy0wLjUsMC43LTEuNiwxLjctMy4zLDEuN2MtMi40LDAtMy44LTEuNi0zLjgtNS4xdi03LjEmIzEwOyYjOTsmIzk7JiM5O2gzLjh2Ni42YzAsMS42LDAuNSwyLjUsMS41LDIuNWMwLjcsMCwxLjUtMC42LDEuNS0xLjh2LTcuM2gzLjhMMTIyLjYsMjQuOUwxMjIuNiwyNC45eiIgY2xhc3M9InN0MCIvPiYjeGE7CQk8cGF0aCBkPSJNMTI1LjQsMTQuNWwzLjctMS4xdjMuM2gyLjV2Mi43aC0yLjVWMjRjMCwxLjQsMC41LDEuOSwxLjQsMS45YzAuNSwwLDAuNiwwLDEtMC4xdjIuOSYjMTA7JiM5OyYjOTsmIzk7Yy0wLjUsMC4yLTEuMywwLjMtMi4zLDAuM2MtMy43LDAtMy44LTMuMi0zLjgtNC41di01SDEyNHYtMi43aDEuNEwxMjUuNCwxNC41TDEyNS40LDE0LjV6IiBjbGFzcz0ic3QwIi8+JiN4YTsJCTxwYXRoIGQ9Ik0xNDMuNiwyMi43YzAsNC43LTMsNi4zLTUuNiw2LjNjLTMuMywwLTUuNi0yLjMtNS42LTYuMmMwLTQuMSwyLjQtNi4zLDUuNy02LjMmIzEwOyYjOTsmIzk7JiM5O0MxNDEuNSwxNi41LDE0My42LDE5LjEsMTQzLjYsMjIuN3ogTTEzOCwxOS4yYy0xLjQsMC0xLjksMS44LTEuOSwzLjVjMCwyLDAuNSwzLjUsMS45LDMuNWMxLjIsMCwxLjgtMS42LDEuOC0zLjUmIzEwOyYjOTsmIzk7JiM5O0MxMzkuOCwyMSwxMzkuNCwxOS4yLDEzOCwxOS4yeiIgY2xhc3M9InN0MCIvPiYjeGE7CQk8cGF0aCBkPSJNMTYyLjIsMjguN2gtMy43di02LjdjMC0xLjUtMC40LTIuNS0xLjQtMi41Yy0wLjksMC0xLjUsMC43LTEuNSwydjcuMmgtMy43di03YzAtMS4yLTAuMy0yLjItMS40LTIuMiYjMTA7JiM5OyYjOTsmIzk7Yy0wLjUsMC0xLjUsMC41LTEuNSwydjcuMmgtMy43di04LjFjMC0xLjQsMC0yLjctMC4xLTMuOGgzLjJsMC4yLDEuNWgwLjFjMC41LTAuNywxLjYtMS43LDMuMy0xLjdjMS40LDAsMi41LDAuNywzLDEuOGwwLDAmIzEwOyYjOTsmIzk7JiM5O2MwLjUtMC43LDEuNS0xLjgsMy40LTEuOGMyLjQsMCwzLjcsMS43LDMuNyw1TDE2Mi4yLDI4LjdMMTYyLjIsMjguN3oiIGNsYXNzPSJzdDAiLz4mI3hhOwkJPHBhdGggZD0iTTE3My43LDI1LjljMCwxLjEsMCwyLjEsMC4yLDIuOGgtMy4zbC0wLjItMS4yaC0wLjFjLTAuNywxLTEuOSwxLjQtMy4xLDEuNGMtMi4yLDAtMy42LTEuNi0zLjYtMy43JiMxMDsmIzk7JiM5OyYjOTtjMC0zLjIsMi44LTQuNSw2LjQtNC42YzAtMC45LTAuNC0xLjUtMS45LTEuNWMtMS4yLDAtMi4yLDAuNC0zLDAuOGwtMC43LTIuNGMwLjctMC41LDIuNC0xLDQuNC0xYzQsMCw1LDIuNSw1LDUuMkwxNzMuNywyNS45JiMxMDsmIzk7JiM5OyYjOTtMMTczLjcsMjUuOXogTTE3MC4xLDIzLjFjLTEuNSwwLTIuOSwwLjUtMi45LDEuOGMwLDEsMC42LDEuNCwxLjMsMS40YzAuNywwLDEuNi0wLjUsMS42LTEuN1YyMy4xeiIgY2xhc3M9InN0MCIvPiYjeGE7CQk8cGF0aCBkPSJNMTc2LjQsMTQuNWwzLjctMS4xdjMuM2gyLjV2Mi43aC0yLjVWMjRjMCwxLjQsMC41LDEuOSwxLjQsMS45YzAuNSwwLDAuNiwwLDEtMC4xdjIuOSYjMTA7JiM5OyYjOTsmIzk7Yy0wLjUsMC4yLTEuMywwLjMtMi4zLDAuM2MtMy43LDAtMy44LTMuMi0zLjgtNC41di01aC0xLjR2LTIuN2gxLjRWMTQuNUwxNzYuNCwxNC41eiIgY2xhc3M9InN0MCIvPiYjeGE7CQk8cGF0aCBkPSJNMTg2LjEsMTUuNGMtMS4yLDAtMS45LTAuOC0xLjktMS45YzAtMS4yLDAuOC0xLjksMS45LTEuOWMxLjIsMCwxLjksMC44LDEuOSwxLjlTMTg3LjEsMTUuNCwxODYuMSwxNS40eiYjMTA7JiM5OyYjOTsmIzk7IE0xODgsMjguN2gtMy44VjE2LjhoMy44VjI4Ljd6IiBjbGFzcz0ic3QwIi8+JiN4YTsJCTxwYXRoIGQ9Ik0yMDAuNywyMi43YzAsNC43LTMsNi4zLTUuNiw2LjNjLTMuMywwLTUuNi0yLjMtNS42LTYuMmMwLTQuMSwyLjQtNi4zLDUuNy02LjMmIzEwOyYjOTsmIzk7JiM5O0MxOTguNiwxNi41LDIwMC43LDE5LjEsMjAwLjcsMjIuN3ogTTE5NS4yLDE5LjJjLTEuNCwwLTEuOSwxLjgtMS45LDMuNWMwLDIsMC41LDMuNSwxLjksMy41YzEuMiwwLDEuOC0xLjYsMS44LTMuNSYjMTA7JiM5OyYjOTsmIzk7QzE5Ni45LDIxLDE5Ni41LDE5LjIsMTk1LjIsMTkuMnoiIGNsYXNzPSJzdDAiLz4mI3hhOwkJPHBhdGggZD0iTTIxMywyOC43aC0zLjh2LTdjMC0xLjMtMC40LTIuMi0xLjQtMi4yYy0wLjgsMC0xLjYsMC41LTEuNiwyLjF2Ny4xaC0zLjh2LTguMWMwLTEuNCwwLTIuNy0wLjEtMy44aDMuMyYjMTA7JiM5OyYjOTsmIzk7bDAuMiwxLjVoMC4xYzAuNS0wLjgsMS42LTEuNywzLjMtMS43YzIuNSwwLDMuOSwxLjgsMy45LDVWMjguN0wyMTMsMjguN3oiIGNsYXNzPSJzdDAiLz4mI3hhOwk8L2c+JiN4YTs8L2c+JiN4YTs8L3N2Zz4=;" vertex="1" parent="FD_-1MQ_MHMcF5boPye6-1">
          <mxGeometry x="182.57" y="17" width="342.86" height="60" as="geometry" />
        </mxCell>
        <mxCell id="FD_-1MQ_MHMcF5boPye6-3" value="OASE" style="swimlane;whiteSpace=wrap;html=1;startSize=60;fontSize=26;fillColor=none;fontColor=#5D5D5D;strokeColor=#999999;rounded=1;arcSize=6;" vertex="1" parent="FD_-1MQ_MHMcF5boPye6-1">
          <mxGeometry x="10" y="126" width="680" height="435" as="geometry" />
        </mxCell>
        <mxCell id="FD_-1MQ_MHMcF5boPye6-4" value="API" style="rounded=1;whiteSpace=wrap;html=1;arcSize=50;shadow=0;strokeColor=none;fontStyle=1;fontSize=18;fillColor=#14a9d3;fontColor=#FFFFFF;" vertex="1" parent="FD_-1MQ_MHMcF5boPye6-3">
          <mxGeometry x="21" y="160" width="275" height="60" as="geometry" />
        </mxCell>
        <mxCell id="FD_-1MQ_MHMcF5boPye6-5" value="OASE評価機能" style="rounded=1;whiteSpace=wrap;html=1;arcSize=50;shadow=0;strokeColor=none;fontStyle=1;fontSize=18;fillColor=#14A9D3;fontColor=#FFFFFF;" vertex="1" parent="FD_-1MQ_MHMcF5boPye6-3">
          <mxGeometry x="22" y="287.5" width="275" height="60" as="geometry" />
        </mxCell>
        <mxCell id="FD_-1MQ_MHMcF5boPye6-6" value="DATABASE" style="rounded=1;whiteSpace=wrap;html=1;arcSize=5;strokeColor=none;shadow=1;verticalAlign=top;spacingTop=26;fontStyle=1;fontColor=#002B62;fontSize=19;fillColor=#FFFFFF;" vertex="1" parent="FD_-1MQ_MHMcF5boPye6-3">
          <mxGeometry x="349.5" y="109" width="291" height="271" as="geometry" />
        </mxCell>
        <mxCell id="FD_-1MQ_MHMcF5boPye6-7" style="edgeStyle=entityRelationEdgeStyle;rounded=0;orthogonalLoop=1;jettySize=auto;html=1;startArrow=none;endArrow=none;segment=10;curved=1;sourcePerimeterSpacing=0;targetPerimeterSpacing=0;entryX=1;entryY=0.5;entryDx=0;entryDy=0;strokeColor=#000000;" edge="1" parent="FD_-1MQ_MHMcF5boPye6-3" source="FD_-1MQ_MHMcF5boPye6-8" target="FD_-1MQ_MHMcF5boPye6-4">
          <mxGeometry relative="1" as="geometry" />
        </mxCell>
        <mxCell id="FD_-1MQ_MHMcF5boPye6-8" value="&lt;font color=&quot;#ffffff&quot;&gt;&lt;span style=&quot;font-size: 18px;&quot;&gt;イベント収集設定&lt;/span&gt;&lt;/font&gt;" style="whiteSpace=wrap;html=1;rounded=1;arcSize=50;align=center;verticalAlign=middle;strokeWidth=1;autosize=1;spacing=4;treeFolding=1;treeMoving=1;newEdgeStyle={&quot;edgeStyle&quot;:&quot;entityRelationEdgeStyle&quot;,&quot;startArrow&quot;:&quot;none&quot;,&quot;endArrow&quot;:&quot;none&quot;,&quot;segment&quot;:10,&quot;curved&quot;:1,&quot;sourcePerimeterSpacing&quot;:0,&quot;targetPerimeterSpacing&quot;:0};strokeColor=none;fillColor=#5335e5;fontStyle=1" vertex="1" parent="FD_-1MQ_MHMcF5boPye6-3">
          <mxGeometry x="355" y="200" width="280" height="55" as="geometry" />
        </mxCell>
        <mxCell id="FD_-1MQ_MHMcF5boPye6-9" style="edgeStyle=entityRelationEdgeStyle;rounded=0;orthogonalLoop=1;jettySize=auto;html=1;startArrow=none;endArrow=none;segment=10;curved=1;sourcePerimeterSpacing=0;targetPerimeterSpacing=0;entryX=1;entryY=0.5;entryDx=0;entryDy=0;strokeColor=#000000;" edge="1" parent="FD_-1MQ_MHMcF5boPye6-3" source="FD_-1MQ_MHMcF5boPye6-11" target="FD_-1MQ_MHMcF5boPye6-4">
          <mxGeometry relative="1" as="geometry" />
        </mxCell>
        <mxCell id="FD_-1MQ_MHMcF5boPye6-10" style="edgeStyle=entityRelationEdgeStyle;rounded=0;orthogonalLoop=1;jettySize=auto;html=1;startArrow=none;endArrow=none;segment=10;curved=1;sourcePerimeterSpacing=0;targetPerimeterSpacing=0;exitX=0;exitY=0.5;exitDx=0;exitDy=0;entryX=1;entryY=0.5;entryDx=0;entryDy=0;strokeColor=#000000;" edge="1" parent="FD_-1MQ_MHMcF5boPye6-3" source="FD_-1MQ_MHMcF5boPye6-11" target="FD_-1MQ_MHMcF5boPye6-5">
          <mxGeometry relative="1" as="geometry" />
        </mxCell>
        <mxCell id="FD_-1MQ_MHMcF5boPye6-11" value="&lt;font color=&quot;#ffffff&quot;&gt;&lt;span style=&quot;font-size: 18px;&quot;&gt;イベント&lt;/span&gt;&lt;/font&gt;" style="whiteSpace=wrap;html=1;rounded=1;arcSize=50;align=center;verticalAlign=middle;strokeWidth=1;autosize=1;spacing=4;treeFolding=1;treeMoving=1;newEdgeStyle={&quot;edgeStyle&quot;:&quot;entityRelationEdgeStyle&quot;,&quot;startArrow&quot;:&quot;none&quot;,&quot;endArrow&quot;:&quot;none&quot;,&quot;segment&quot;:10,&quot;curved&quot;:1,&quot;sourcePerimeterSpacing&quot;:0,&quot;targetPerimeterSpacing&quot;:0};strokeColor=none;fillColor=#5335e5;fontStyle=1" vertex="1" parent="FD_-1MQ_MHMcF5boPye6-3">
          <mxGeometry x="355" y="290" width="280" height="55" as="geometry" />
        </mxCell>
        <mxCell id="FD_-1MQ_MHMcF5boPye6-12" value="OASE Agent" style="swimlane;whiteSpace=wrap;html=1;startSize=90;fillColor=#00A9AC;strokeColor=none;fontSize=27;fontColor=#FFFFFF;rounded=1;arcSize=4;shadow=0;glass=0;swimlaneFillColor=#F6F6F6;" vertex="1" parent="1">
          <mxGeometry x="-80" y="1384" width="360" height="586" as="geometry" />
        </mxCell>
        <mxCell id="FD_-1MQ_MHMcF5boPye6-13" style="edgeStyle=orthogonalEdgeStyle;rounded=0;orthogonalLoop=1;jettySize=auto;html=1;exitX=0.5;exitY=1;exitDx=0;exitDy=0;entryX=0.5;entryY=0;entryDx=0;entryDy=0;endArrow=none;endFill=0;strokeColor=#000000;" edge="1" parent="FD_-1MQ_MHMcF5boPye6-12" source="FD_-1MQ_MHMcF5boPye6-14" target="FD_-1MQ_MHMcF5boPye6-15">
          <mxGeometry relative="1" as="geometry" />
        </mxCell>
        <mxCell id="FD_-1MQ_MHMcF5boPye6-14" value="イベント取得機能" style="rounded=1;whiteSpace=wrap;html=1;arcSize=50;shadow=0;strokeColor=none;fontStyle=1;fontSize=18;fillColor=#14a9d3;fontColor=#FFFFFF;" vertex="1" parent="FD_-1MQ_MHMcF5boPye6-12">
          <mxGeometry x="42.5" y="226" width="275" height="60" as="geometry" />
        </mxCell>
        <mxCell id="FD_-1MQ_MHMcF5boPye6-15" value="TEMPORARY&lt;br&gt;DATABASE" style="rounded=1;whiteSpace=wrap;html=1;arcSize=5;strokeColor=none;shadow=1;verticalAlign=top;spacingTop=26;fontStyle=1;fontColor=#002B62;fontSize=19;fillColor=#FFFFFF;" vertex="1" parent="FD_-1MQ_MHMcF5boPye6-12">
          <mxGeometry x="34.5" y="306" width="291" height="199" as="geometry" />
        </mxCell>
        <mxCell id="FD_-1MQ_MHMcF5boPye6-16" value="&lt;font color=&quot;#ffffff&quot;&gt;&lt;span style=&quot;font-size: 18px;&quot;&gt;イベント&lt;/span&gt;&lt;/font&gt;" style="whiteSpace=wrap;html=1;rounded=1;arcSize=50;align=center;verticalAlign=middle;strokeWidth=1;autosize=1;spacing=4;treeFolding=1;treeMoving=1;newEdgeStyle={&quot;edgeStyle&quot;:&quot;entityRelationEdgeStyle&quot;,&quot;startArrow&quot;:&quot;none&quot;,&quot;endArrow&quot;:&quot;none&quot;,&quot;segment&quot;:10,&quot;curved&quot;:1,&quot;sourcePerimeterSpacing&quot;:0,&quot;targetPerimeterSpacing&quot;:0};strokeColor=none;fillColor=#5335e5;fontStyle=1" vertex="1" parent="FD_-1MQ_MHMcF5boPye6-12">
          <mxGeometry x="40" y="416" width="280" height="55" as="geometry" />
        </mxCell>
        <mxCell id="FD_-1MQ_MHMcF5boPye6-17" style="edgeStyle=orthogonalEdgeStyle;rounded=0;orthogonalLoop=1;jettySize=auto;html=1;exitX=0.5;exitY=1;exitDx=0;exitDy=0;endArrow=none;endFill=0;strokeColor=#000000;" edge="1" parent="FD_-1MQ_MHMcF5boPye6-12" source="FD_-1MQ_MHMcF5boPye6-18">
          <mxGeometry relative="1" as="geometry">
            <mxPoint x="179.71428571428578" y="226" as="targetPoint" />
          </mxGeometry>
        </mxCell>
        <mxCell id="FD_-1MQ_MHMcF5boPye6-18" value="ITAとの連携機能" style="rounded=1;whiteSpace=wrap;html=1;arcSize=50;shadow=0;strokeColor=none;fontStyle=1;fontSize=18;fillColor=#14a9d3;fontColor=#FFFFFF;" vertex="1" parent="FD_-1MQ_MHMcF5boPye6-12">
          <mxGeometry x="42.5" y="146" width="275" height="60" as="geometry" />
        </mxCell>
        <mxCell id="FD_-1MQ_MHMcF5boPye6-19" style="edgeStyle=entityRelationEdgeStyle;rounded=0;orthogonalLoop=1;jettySize=auto;html=1;exitX=1;exitY=0.5;exitDx=0;exitDy=0;entryX=0;entryY=0.5;entryDx=0;entryDy=0;endArrow=none;endFill=0;curved=1;strokeColor=#000000;" edge="1" parent="1" source="FD_-1MQ_MHMcF5boPye6-20" target="FD_-1MQ_MHMcF5boPye6-14">
          <mxGeometry relative="1" as="geometry" />
        </mxCell>
        <mxCell id="FD_-1MQ_MHMcF5boPye6-20" value="外部サービス" style="swimlane;whiteSpace=wrap;html=1;startSize=90;fillColor=#EA6B66;strokeColor=none;fontSize=27;fontColor=#FFFFFF;rounded=1;arcSize=4;shadow=0;glass=0;swimlaneFillColor=#F6F6F6;gradientColor=none;" vertex="1" parent="1">
          <mxGeometry x="-540" y="1384" width="360" height="586" as="geometry" />
        </mxCell>
        <mxCell id="FD_-1MQ_MHMcF5boPye6-21" value="" style="shape=image;verticalLabelPosition=bottom;labelBackgroundColor=default;verticalAlign=top;aspect=fixed;imageAspect=0;image=data:image/png,iVBORw0KGgoAAAANSUhEUgAAAUgAAAFICAMAAAAFypcBAAAAAXNSR0IArs4c6QAAAARnQU1BAACxjwv8YQUAAAB+UExURQAAAEBAQGBgYFVVVWBgYFlZWWBgYGBgYFxcXGBgYF1dXVtbW15eXlxcXF5eXl5eXl1dXVxcXF1dXV1dXV5eXl1dXV5eXl5eXl1dXVxcXF1dXVxcXF1dXV1dXV1dXV1dXVxcXF1dXV1dXV1dXV1dXV1dXV1dXV1dXV1dXV1dXQzdEzwAAAApdFJOUwAECAwQFBggJDA0ODxATFRYZHB8i4+Tm5+jp6uvs8PLz9PX3+Pv8/f73NBYFwAAAAlwSFlzAAAOwwAADsMBx2+oZAAABphJREFUeF7t3Wt31DYQgOENoUCbppReSROghbYh//8PdmHcxN6LrcuMNJLe98vasjQn+5xs9hvsiIiIiIiIiIiIiIiIiIiIiIiIiIiIiIiIiIiIiIiIiIiIiIiIiIiIiIiIiIiImurqeviuJoq8Pj0M36eJIi8ggdQKSKWAVApIpdQhP9+8Haabz9Ob3qf/G3l7MS1238Xt9Ja/ZPDRHkVy4WjyN3IMyaWjzZfNCJIHjrqQH+VlBMknx+lNq0K+GEZy5vhCXlUhd6NIzh13cqELOYjkwtEGcgjJpaMR5ACSB45WkN1LHjqaQXYueeRoB9m15LGjIWTHkiccLSG7lTzlaArZqeRJR1vILiVPOxpDdih5xtEasjvJc47mkJ1JnnW0h+xK8rxjAciOJFccS0B2I7nmWASyE8lVxzKQXUiuOxaC7EByw7EUZPOSW47FIBuX3HQsB9m05LZjQciGJQMcS0I2KxniWBSyUckgx7KQTUqGORaGbFAy0LE0ZHOSoY7FIRuTDHYsD9mUZLhjBciGJCMca0A2IxnjWAWyEckoxzqQTUjGOVaCbEAy0rEWpHvJWMdqkM4lox3rQbqWjHesCOlYMsGxJqRbyRTHqpBOJZMc60K6lExzrAzpUDLRsTakO8lUx+qQziSTHetDupJMd3QA6Ugyw9EDpBvJHEcXkE4ksxx9QLqQzHN0AulAMtPRC2R1yVxHN5CVJbMd/UBWlcx3dARZUVLB0RNkNUkNR1eQlSRVHH1BVpHUcXQGWUFSydEbZHFJLUd3kIUl1Rz9QRaV1HN0CFlQUtHRI2QxSU1Hl5CFJFUdfUIWkdR1dApZQFLZ0SukuaS2o1tIY0l1R7+QppL6jo4hDSUNHD1DmklaOLqGNJI0cfQNaSJp4+gc0kDSyNE7pLqklaN7SGVJM0f/kKqSdo5NQWZLPjkOCDlzzJWcOY730V445kkuHEf7sjlwzJE8cNSWlJleIZ8cH/83zFTJJ8fHUaqSMtIp5JPj+1ePl2mST44fX72frlQlZaJPyJnj5ewmRXLm+GJ3aSEpA11CLhznt/GSC8ediaTM8wh54JgjeeBoIinjHEIeOaZLHjlaSMo0f5AnHFMlTzgaSMowd5AnHdMkTzrqS8osb5BnHFMkzziqS8ooZ5BnHeMlzzpqS8okX5ArjrGSK47KkjLIFeSqY5zkqqOupMzxBLnhGCO54agqKWMcQW46hktuOmpKyhQ/kAGOoZIBjoqSMsQNZJBjmGSQo56kzPACGegYIhnoqCYpI5xABjtuSwY7aknKBB+QEY5bkhGOSpIywAVklOO6ZJSjjqSc9wAZ6bgmGemoIinHHUBGO86P3D2flr52GeuoISmn60MmOM4P/f16Wtr3w/RzRKFkS8rh6pBJjvNjD3ffff18X3z7x7QQSZIrKWdrQyY6LiQf7v/8/bcP99PNvkiQTEk5Whky2XEpuSyaI09STtaFzHDcH/4wnT3or3iMLEk5WBUyy3H/9m+m04veJY3KkJRzNSEzHff99M804LH7n6dHkWVIyrGKkPmOu93zX2bfMXvGXxP+xknpknKqHqSG475v3tz9K2Pu371JZtyXLCmHqkEqOX7p2cvvX/94/fLZdJtaqqScqQWp6KhWoqQcqQTp0TFVUk7UgfTpmCgpB6pAenVMk5T9NSD9OiZJyvYKkJ4dUyRld3lI344JkrK5OKR3x3hJ2Vsa0r9jtKRsLQzZgmOspOwsC9mGY6SkbCwK2YpjnKTsKwnZjmOUpGwrCNmSY4yk7CoH2ZZjhKRsKgbZmmO4pOwpBdmeY7CkbCkE2aJjqKTsKAPZpmOgpGwoAtmqY5ikPC8B2a5jkKQ8LgDZsmOIpDy1h2zbMUBSHppDtu64LSnPrCHbd9yUlEfGkD04bknKE1vIPhw3JOWBKWQvjuuSsm4J2Y/jqqQsG0L25LgmKat2kH05rkjKohlkb47nJWXNCrI/x7OSsmQE2aPjOUlZsYHs0/GMpCyYQPbqeFpS7i0g+3U8KSm3BpA9O56SlDt9yL4dT0jKjTpk747HknKtDdm/45GkXCpDjuB4KClXupBjOB5IyoUq5CiOS0l5VYUcxnEhKS+qkP/Xv+NcUrKAHMHxSNIAcgzHQ0l9yFEcDyT1IW/fDtPjv8S2z+TLZsSAVApIpYBUCkilgFRKB/LqeviuJgoiIiIiIiIiIiIiIiIiIiIiIiIiIiIiIiIiIiIiIiIiIiIiIiIiIiIiIiIiIqIW2u3+A/atKFMk3LqCAAAAAElFTkSuQmCC;" vertex="1" parent="FD_-1MQ_MHMcF5boPye6-20">
          <mxGeometry x="92" y="146" width="176" height="176" as="geometry" />
        </mxCell>
        <mxCell id="FD_-1MQ_MHMcF5boPye6-22" value="" style="group" vertex="1" connectable="0" parent="FD_-1MQ_MHMcF5boPye6-20">
          <mxGeometry x="100" y="350" width="160" height="160" as="geometry" />
        </mxCell>
        <mxCell id="FD_-1MQ_MHMcF5boPye6-23" value="" style="sketch=0;outlineConnect=0;fontColor=#232F3E;gradientColor=none;strokeColor=#232F3E;fillColor=#ffffff;dashed=0;verticalLabelPosition=bottom;verticalAlign=top;align=center;html=1;fontSize=12;fontStyle=0;aspect=fixed;shape=mxgraph.aws4.resourceIcon;resIcon=mxgraph.aws4.corporate_data_center;" vertex="1" parent="FD_-1MQ_MHMcF5boPye6-22">
          <mxGeometry width="160" height="160" as="geometry" />
        </mxCell>
        <mxCell id="FD_-1MQ_MHMcF5boPye6-24" value="" style="verticalLabelPosition=bottom;sketch=0;aspect=fixed;html=1;verticalAlign=top;strokeColor=none;align=center;outlineConnect=0;shape=mxgraph.citrix.inspection;" vertex="1" parent="FD_-1MQ_MHMcF5boPye6-22">
          <mxGeometry x="78" y="66" width="70" height="65" as="geometry" />
        </mxCell>
        <mxCell id="FD_-1MQ_MHMcF5boPye6-25" style="edgeStyle=entityRelationEdgeStyle;rounded=0;orthogonalLoop=1;jettySize=auto;html=1;exitX=1;exitY=0.5;exitDx=0;exitDy=0;entryX=0;entryY=0.5;entryDx=0;entryDy=0;curved=1;endArrow=none;endFill=0;strokeColor=#000000;" edge="1" parent="1" source="FD_-1MQ_MHMcF5boPye6-18" target="FD_-1MQ_MHMcF5boPye6-4">
          <mxGeometry relative="1" as="geometry" />
        </mxCell>
      </root>
    </mxGraphModel>
  </diagram>
</mxfile>
